<svg width="50" height="49" viewBox="0 0 50 49" fill="none" xmlns="http://www.w3.org/2000/svg">
<path fill-rule="evenodd" clip-rule="evenodd" d="M10 0C4.47715 0 0 4.47715 0 10V39C0 44.5228 4.47715 49 10 49H40C45.5228 49 50 44.5228 50 39V10C50 4.47715 45.5228 0 40 0H10ZM13.341 34C12.795 34 12.522 33.727 12.522 33.181V17.776C12.522 17.23 12.795 16.957 13.341 16.957C13.627 16.957 13.9043 17.1173 14.173 17.438L24.612 30.8596V17.776C24.612 17.23 24.885 16.957 25.431 16.957C25.977 16.957 26.25 17.23 26.25 17.776V18.6262C26.3783 18.4164 26.5257 18.2283 26.692 18.062C27.4287 17.3253 28.577 16.957 30.137 16.957H33.595C35.025 16.957 36.104 17.269 36.832 17.893C37.5687 18.5083 37.989 19.4747 38.093 20.792C38.119 21.052 38.0583 21.26 37.911 21.416C37.7637 21.5633 37.5557 21.637 37.287 21.637C37.0357 21.637 36.8407 21.5677 36.702 21.429C36.5633 21.2817 36.481 21.0823 36.455 20.831C36.3857 19.9903 36.1343 19.4097 35.701 19.089C35.2677 18.7597 34.5657 18.595 33.595 18.595H30.137C29.0277 18.595 28.265 18.8073 27.849 19.232C27.4417 19.648 27.238 20.402 27.238 21.494C27.238 22.586 27.446 23.3487 27.862 23.782C28.2867 24.2067 29.0537 24.419 30.163 24.419H33.608C35.246 24.419 36.455 24.809 37.235 25.589C38.015 26.3603 38.405 27.5693 38.405 29.216C38.405 30.854 38.015 32.0587 37.235 32.83C36.4637 33.6013 35.2547 33.987 33.608 33.987H29.864C28.3387 33.987 27.186 33.6577 26.406 32.999C26.3524 32.9532 26.3004 32.9056 26.25 32.8563V33.181C26.25 33.727 25.977 34 25.431 34C25.1363 34 24.859 33.8397 24.599 33.519L14.16 20.0974V33.181C14.16 33.727 13.887 34 13.341 34ZM26.25 29.1155V24.3646C26.3817 24.5825 26.5333 24.7783 26.705 24.952C27.4417 25.6887 28.5943 26.057 30.163 26.057H33.608C34.7867 26.057 35.6057 26.2867 36.065 26.746C36.533 27.1967 36.767 28.02 36.767 29.216C36.767 30.3947 36.5373 31.2137 36.078 31.673C35.6273 32.1237 34.804 32.349 33.608 32.349H29.864C28.7807 32.349 28.005 32.167 27.537 31.803C27.069 31.439 26.8047 30.7933 26.744 29.866C26.7093 29.606 26.6227 29.4067 26.484 29.268C26.4212 29.201 26.3432 29.1502 26.25 29.1155Z" fill="#B4B4CA"/>
</svg>
